<?xml version="1.0" standalone="no"?>
<!DOCTYPE svg PUBLIC "-//W3C//DTD SVG 20010904//EN"
 "http://www.w3.org/TR/2001/REC-SVG-20010904/DTD/svg10.dtd">
<svg version="1.0" xmlns="http://www.w3.org/2000/svg"
 width="200.000000pt" height="200.000000pt" viewBox="0 0 200.000000 200.000000"
 preserveAspectRatio="xMidYMid meet">
<metadata>
Created by potrace 1.14, written by Peter Selinger 2001-2017
</metadata>
<g transform="translate(0.000000,200.000000) scale(0.100000,-0.100000)"
fill="#000000" stroke="none">
<path d="M916 1978 c-55 -32 -81 -79 -81 -149 0 -46 5 -63 28 -93 16 -20 46
-45 68 -57 28 -14 39 -25 35 -35 -3 -9 -6 -62 -6 -119 l0 -103 -104 -60 -104
-60 -97 98 c-97 98 -98 98 -86 131 58 166 -140 299 -270 182 -89 -81 -70 -222
37 -274 45 -21 83 -22 151 -3 18 5 39 -10 113 -82 l90 -89 -28 -21 c-25 -20
-27 -29 -32 -114 l-5 -93 -144 -1 -143 -1 -19 37 c-57 112 -212 128 -287 30
-23 -30 -27 -45 -27 -102 0 -57 4 -72 27 -102 75 -98 230 -82 287 30 l19 37
143 -1 144 -1 5 -91 c4 -76 9 -94 27 -114 l23 -24 -89 -88 c-88 -88 -89 -89
-122 -77 -47 16 -87 14 -135 -10 -105 -50 -123 -192 -35 -272 67 -60 165 -59
228 3 51 50 63 112 38 197 -6 18 10 39 88 118 l95 97 106 -62 106 -62 0 -103
c0 -57 3 -110 6 -119 4 -10 -7 -21 -35 -35 -123 -63 -132 -232 -16 -299 52
-30 136 -27 182 6 104 74 88 233 -28 293 -28 14 -39 25 -35 35 3 9 6 62 6 119
l0 102 104 60 104 61 97 -98 c97 -98 98 -98 86 -131 -16 -47 -14 -87 9 -133
52 -106 193 -125 273 -37 60 67 59 165 -3 228 -50 51 -112 63 -197 37 -18 -5
-38 9 -113 82 l-90 89 28 21 c25 20 27 29 32 114 l5 93 144 1 143 1 19 -37
c47 -92 160 -123 246 -66 53 35 77 85 71 154 -14 169 -239 209 -317 56 l-19
-37 -143 1 -144 1 -5 91 c-4 76 -9 94 -27 114 l-23 24 89 88 c88 88 89 89 122
77 47 -16 87 -14 133 9 106 52 125 193 37 273 -67 60 -165 59 -228 -3 -51 -50
-63 -111 -37 -197 5 -19 -9 -38 -88 -118 l-95 -96 -107 62 -106 61 0 103 c0
57 -3 110 -6 119 -4 10 7 21 35 35 115 59 132 219 30 291 -48 35 -131 38 -183
8z m126 -82 c0 -12 1 -27 1 -34 -1 -9 5 -8 20 5 11 10 17 12 12 4 -4 -7 -3
-16 2 -20 6 -3 8 -21 6 -38 -3 -18 -9 -31 -13 -28 -5 3 -11 -3 -15 -14 -14
-45 -115 -33 -115 14 0 6 5 3 10 -5 8 -13 10 -13 10 2 0 9 -6 19 -12 21 -10 4
-10 8 1 15 9 7 10 12 2 16 -6 4 -14 0 -18 -9 -6 -16 -7 -16 -16 0 -6 12 -6 20
3 25 8 5 9 13 4 21 -6 10 -3 10 11 -1 17 -14 17 -13 10 10 -4 14 -4 22 0 17 5
-4 9 -17 10 -30 1 -12 6 -22 11 -21 13 1 18 34 5 34 -6 0 -11 9 -11 20 0 17 6
20 40 18 33 -1 40 -5 42 -22z m-638 -237 c-3 -5 7 -14 21 -19 41 -16 53 -11
20 7 -17 9 -24 18 -18 20 7 3 27 -5 44 -17 30 -22 31 -27 14 -75 -5 -16 -5
-17 4 -5 14 20 14 7 0 -23 -11 -24 -48 -48 -72 -46 -7 0 -3 4 8 9 16 7 17 9 3
9 -9 1 -20 -3 -23 -9 -3 -5 -11 -10 -16 -10 -6 0 -7 5 -3 12 5 7 2 9 -9 5 -10
-4 -14 -2 -11 6 2 7 -5 17 -17 22 -15 7 -23 20 -24 43 -2 17 1 32 6 32 5 0 9
7 9 15 0 9 6 12 17 8 11 -4 14 -3 9 5 -4 7 -3 12 3 12 21 0 20 -19 -1 -34 -12
-9 -18 -16 -13 -16 5 0 4 -5 -3 -12 -15 -15 -16 -38 -2 -38 6 0 10 8 10 18 0
26 18 50 28 36 4 -7 15 -8 27 -3 14 5 16 8 5 9 -8 2 -19 2 -23 1 -5 -1 -7 4
-4 11 2 7 0 21 -5 30 -6 14 -5 16 7 12 8 -3 12 -10 9 -15z m1166 6 c-7 -9 -9
-19 -5 -23 4 -4 10 -1 12 6 3 7 14 17 26 24 21 11 21 11 3 -17 -10 -15 -13
-24 -7 -21 6 4 11 3 11 -3 0 -18 -18 -22 -58 -13 -37 9 -39 8 -35 -12 4 -18 3
-19 -6 -4 -15 22 -4 48 17 41 9 -4 14 -3 10 2 -4 4 0 14 10 21 23 18 37 17 22
-1z m87 -25 c3 -11 9 -20 14 -20 5 0 9 -5 9 -11 0 -5 -5 -7 -11 -3 -8 5 -8 1
0 -14 6 -11 11 -24 11 -27 0 -11 -29 22 -32 36 -2 8 -11 20 -21 27 -19 15 -14
32 10 32 8 0 17 -9 20 -20z m-25 -45 c3 -13 0 -26 -6 -28 -8 -3 -7 -11 1 -30
7 -15 9 -28 5 -28 -60 -10 -97 -2 -113 24 -11 17 2 45 24 51 19 5 20 8 7 16
-11 8 -5 9 23 4 24 -4 37 -2 37 5 0 21 18 11 22 -14z m28 -50 c0 -8 -4 -15
-10 -15 -5 0 -10 7 -10 15 0 8 5 15 10 15 6 0 10 -7 10 -15z m-843 -440 c0
-18 -19 -15 -25 3 -2 7 3 12 11 12 7 0 14 -7 14 -15z m54 5 c13 -7 19 -7 19 0
0 5 6 10 14 10 18 0 66 -39 66 -53 0 -7 -4 -6 -11 3 -8 12 -9 11 -6 -5 2 -11
8 -19 13 -18 6 1 11 -14 12 -33 2 -19 -2 -34 -8 -34 -5 0 -10 13 -10 29 0 17
-5 33 -11 37 -6 3 -8 15 -6 26 4 14 2 18 -9 14 -8 -3 -14 1 -14 9 0 8 -4 15
-10 15 -5 0 -10 -4 -10 -8 0 -15 -58 -11 -64 4 -6 17 8 18 35 4z m332 -3 c-3
-5 1 -8 8 -6 25 3 37 -1 42 -14 3 -8 -1 -14 -9 -14 -7 0 -11 4 -8 8 2 4 0 10
-6 14 -5 3 -10 1 -10 -6 0 -9 -4 -8 -15 1 -8 7 -35 11 -65 8 -27 -1 -50 1 -50
5 0 5 -5 5 -10 2 -6 -4 -8 -10 -5 -14 6 -11 -22 -48 -30 -40 -3 4 1 14 10 23
9 9 11 16 5 16 -7 0 -7 4 1 13 13 14 150 18 142 4z m-432 -11 c-6 -8 -11 -18
-10 -22 1 -5 1 -17 0 -27 -1 -15 -3 -16 -15 -5 -12 11 -11 14 3 20 11 5 12 7
2 7 -11 1 -10 6 4 21 20 23 34 28 16 6z m-589 -13 c-16 -6 -6 -23 14 -23 8 0
12 5 9 10 -3 6 -1 10 5 10 7 0 10 -6 7 -12 -2 -8 -17 -12 -36 -10 -17 1 -31
-1 -31 -6 0 -8 24 -12 72 -12 45 0 49 -62 7 -103 -20 -19 -79 -32 -79 -17 0 5
-8 7 -17 4 -13 -4 -14 -3 -5 3 10 8 9 13 -4 24 -12 9 -15 10 -10 2 10 -18 -9
-16 -24 2 -17 21 -15 71 4 90 17 18 27 19 24 4 -2 -6 4 -14 12 -16 12 -4 12
-3 1 5 -10 7 -10 11 -1 17 9 6 9 10 -1 17 -11 8 -10 9 4 4 9 -3 17 -2 17 2 0
4 10 8 23 9 12 0 16 -1 9 -4z m1612 -14 c-5 -9 1 -10 21 -5 18 5 35 2 52 -10
14 -9 22 -11 19 -5 -10 16 3 14 20 -3 16 -16 20 -81 4 -71 -10 6 -14 -7 -11
-33 3 -19 -30 -27 -43 -10 -6 8 -22 18 -36 22 l-25 7 25 -16 25 -15 -29 6
c-21 5 -27 4 -22 -5 11 -17 -3 -13 -22 6 -16 16 -16 16 1 10 12 -5 17 -1 17
13 0 22 -16 27 -22 8 -3 -8 -9 -4 -17 10 -14 26 0 62 25 62 11 0 13 6 9 20 -4
12 -2 20 5 20 6 0 8 -5 4 -11z m-531 -16 c-7 -2 -13 -14 -12 -26 0 -21 1 -21
9 -2 8 19 9 19 9 -3 1 -13 -12 -36 -28 -53 -25 -25 -37 -29 -78 -27 l-48 1 50
7 50 7 -49 1 c-60 2 -57 8 6 14 31 4 45 2 41 -5 -3 -5 0 -8 8 -5 8 3 14 11 15
19 0 8 2 29 2 47 2 24 7 32 20 31 10 0 12 -3 5 -6z m-196 -58 c-1 -28 -7 -45
-14 -45 -7 0 -12 3 -11 8 1 4 -1 17 -6 29 -4 14 -2 28 6 37 22 25 27 18 25
-29z m-307 -27 c0 -9 12 -29 28 -43 27 -27 66 -30 117 -11 17 7 17 6 5 -4 -12
-10 -11 -11 10 -6 24 5 24 4 5 -10 -12 -9 -21 -11 -23 -4 -2 5 -8 10 -13 10
-6 0 -8 -4 -5 -8 2 -4 -16 -8 -42 -7 -32 0 -46 4 -44 13 2 13 -14 17 -21 5 -2
-5 -2 -2 -1 5 2 6 -5 12 -15 12 -15 0 -18 5 -14 23 3 16 2 18 -5 8 -9 -12 -10
14 -2 59 1 12 20 -26 20 -42z m213 -25 c-3 -7 -6 -13 -8 -13 -2 0 -5 6 -8 13
-3 8 1 14 8 14 7 0 11 -6 8 -14z m-23 -13 c0 -5 -5 -10 -11 -10 -5 0 -7 5 -4
10 3 6 8 10 11 10 2 0 4 -4 4 -10z m110 0 c0 -5 -4 -10 -10 -10 -5 0 -10 5
-10 10 0 6 5 10 10 10 6 0 10 -4 10 -10z m10 -35 c0 -8 -4 -15 -9 -15 -5 0
-11 7 -15 15 -3 9 0 15 9 15 8 0 15 -7 15 -15z m-618 -407 c31 -11 40 -28 43
-80 2 -28 -3 -42 -21 -59 -13 -12 -24 -17 -24 -11 0 7 -5 12 -11 12 -6 0 -9
-6 -6 -13 3 -8 -5 -12 -23 -12 -20 -1 -26 3 -22 13 2 7 8 9 11 4 3 -5 15 -1
25 9 17 17 18 19 3 19 -9 0 -17 -5 -17 -12 0 -6 -9 -2 -20 10 -11 12 -20 27
-20 34 0 10 -3 9 -9 -2 -7 -10 -4 -18 10 -28 19 -13 18 -32 -2 -32 -6 0 -7 5
-3 12 5 8 2 9 -9 5 -11 -4 -17 -1 -17 8 0 8 -4 15 -10 15 -5 0 -10 5 -10 11 0
5 5 7 11 3 7 -4 7 1 -1 15 -9 17 -9 26 1 39 8 9 15 19 16 21 2 3 10 -4 18 -15
14 -18 14 -17 6 8 -7 19 -7 28 2 31 20 7 50 5 79 -5z m1196 -3 c3 -3 0 -5 -6
-5 -14 0 -42 -52 -42 -79 0 -24 -24 -38 -65 -37 -28 1 -30 4 -33 42 -2 33 2
45 23 67 23 23 33 26 73 22 25 -3 48 -7 50 -10z m12 -30 c0 -8 -4 -15 -10 -15
-5 0 -10 7 -10 15 0 8 5 15 10 15 6 0 10 -7 10 -15z m8 -52 c-9 -12 -9 -15 0
-9 6 4 12 2 12 -3 0 -6 -4 -11 -10 -11 -5 0 -10 -7 -10 -15 0 -9 -6 -12 -17
-8 -11 4 -14 3 -9 -5 4 -7 3 -12 -3 -12 -19 0 -21 19 -3 32 11 7 19 17 19 22
0 15 28 47 31 36 2 -6 -2 -18 -10 -27z m-34 5 c-3 -12 -13 -28 -20 -36 -10 -9
-11 -19 -5 -31 8 -15 6 -17 -17 -16 -34 1 -70 21 -59 31 5 5 12 2 16 -5 11
-17 57 21 65 55 4 13 11 24 17 24 6 0 8 -9 3 -22z m-582 -171 c5 -6 7 -25 5
-42 -2 -16 2 -40 10 -52 15 -22 11 -43 -8 -43 -5 0 -9 5 -9 11 0 5 5 7 10 4 6
-3 10 -1 10 4 0 17 -18 13 -29 -6 -5 -10 -13 -17 -18 -17 -4 1 -7 -2 -5 -7 4
-15 -48 -10 -64 5 -17 18 -18 30 -1 20 9 -5 9 -3 -1 7 -11 12 -14 12 -22 -1
-5 -8 -10 -10 -10 -5 1 6 7 19 15 29 8 11 12 28 9 39 -9 28 4 65 24 70 26 8
75 -2 84 -16z m33 -85 c-11 -12 -21 12 -17 40 l6 33 7 -35 c4 -19 6 -36 4 -38z
m-155 4 c-14 -14 -22 -2 -14 18 5 14 9 15 15 4 4 -7 4 -17 -1 -22z"/>
<path d="M1056 1842 c-3 -5 -22 -8 -42 -5 -19 2 -33 0 -31 -4 3 -5 20 -10 38
-11 18 -2 36 -7 40 -13 3 -6 9 -2 12 10 5 22 -7 38 -17 23z"/>
<path d="M1041 1784 c0 -11 3 -14 6 -6 3 7 2 16 -1 19 -3 4 -6 -2 -5 -13z"/>
<path d="M382 1570 c0 -14 2 -19 5 -12 2 6 2 18 0 25 -3 6 -5 1 -5 -13z"/>
<path d="M1600 1536 c0 -8 4 -17 9 -20 5 -4 7 3 4 14 -6 23 -13 26 -13 6z"/>
<path d="M150 948 c0 -5 7 -8 16 -8 8 0 12 -4 9 -10 -10 -17 11 -11 36 10 13
10 18 19 12 20 -7 0 -13 -4 -13 -10 0 -5 -8 -10 -17 -10 -15 0 -15 2 -4 9 10
7 7 9 -12 8 -15 -1 -27 -5 -27 -9z"/>
<path d="M1865 940 c-3 -5 1 -10 10 -10 9 0 13 5 10 10 -3 6 -8 10 -10 10 -2
0 -7 -4 -10 -10z"/>
<path d="M388 468 c5 -22 16 -23 36 -2 21 20 21 21 -13 21 -22 0 -27 -4 -23
-19z"/>
<path d="M335 430 c3 -5 8 -10 11 -10 2 0 4 5 4 10 0 6 -5 10 -11 10 -5 0 -7
-4 -4 -10z"/>
<path d="M481 424 c0 -11 3 -14 6 -6 3 7 2 16 -1 19 -3 4 -6 -2 -5 -13z"/>
<path d="M448 413 c7 -3 16 -2 19 1 4 3 -2 6 -13 5 -11 0 -14 -3 -6 -6z"/>
<path d="M400 386 c4 -4 16 -4 26 2 16 9 14 10 -8 9 -15 -1 -23 -6 -18 -11z"/>
<path d="M461 391 c-11 -7 -11 -9 0 -14 12 -4 11 -7 -1 -16 -8 -6 -10 -11 -4
-11 6 0 17 7 24 15 16 19 1 38 -19 26z"/>
<path d="M1596 465 c-3 -8 -1 -15 4 -15 6 0 10 7 10 15 0 8 -2 15 -4 15 -2 0
-6 -7 -10 -15z"/>
<path d="M1538 443 c0 -10 -2 -24 -2 -31 -1 -7 -8 -17 -16 -22 -11 -8 -9 -9
12 -8 22 2 25 5 17 20 -7 13 -6 20 5 24 24 9 28 34 6 34 -12 0 -21 -7 -22 -17z"/>
<path d="M1511 434 c0 -11 3 -14 6 -6 3 7 2 16 -1 19 -3 4 -6 -2 -5 -13z"/>
<path d="M1015 231 c-8 -15 3 -31 21 -31 9 0 14 7 12 17 -4 20 -24 28 -33 14z"/>
<path d="M951 214 c0 -11 3 -14 6 -6 3 7 2 16 -1 19 -3 4 -6 -2 -5 -13z"/>
</g>
</svg>
